<?xml version="1.0" encoding="UTF-8"?>
<svg id="Layer_2" viewBox="0 0 178.92 178.88">
  <defs>
    <style>
      .cls-1 {
        fill: #6f6f6f;
      }

      .cls-2 {
        fill: #181818;
      }

      .cls-3 {
        fill: #111;
      }

      .cls-4 {
        fill: #252525;
      }

      .cls-5 {
        fill: #010101;
      }

      .cls-6 {
        fill: #8b8b8b;
      }

      .cls-7 {
        fill: #2c2c2c;
      }

      .cls-8 {
        fill: #141414;
      }

      .cls-9 {
        fill: #fcfcfc;
      }

      .cls-10 {
        fill: #3e3e3e;
      }

      .cls-11 {
        fill: #080808;
      }

      .cls-12 {
        fill: #3f3f3f;
      }

      .cls-13 {
        fill: #bababa;
      }

      .cls-14 {
        fill: #2d2d2d;
      }

      .cls-15 {
        fill: #f0f0f0;
      }

      .cls-16 {
        fill: #383838;
      }

      .cls-17 {
        fill: #424242;
      }

      .cls-18 {
        fill: #050505;
      }

      .cls-19 {
        fill: #262626;
      }

      .cls-20 {
        fill: #e5e5e5;
      }

      .cls-21 {
        fill: #1c1c1c;
      }

      .cls-22 {
        fill: #fbfbfb;
      }

      .cls-23 {
        fill: #404040;
      }

      .cls-24 {
        fill: #1f1f1f;
      }

      .cls-25 {
        fill: #212121;
      }

      .cls-26 {
        fill: #222;
      }

      .cls-27 {
        fill: #555;
      }

      .cls-28 {
        fill: #2b2b2b;
      }

      .cls-29 {
        fill: #0d0d0d;
      }

      .cls-30 {
        fill: #333;
      }

      .cls-31 {
        fill: #0f0f0f;
      }

      .cls-32 {
        fill: #595959;
      }

      .cls-33 {
        fill: #1a1a1a;
      }

      .cls-34 {
        fill: #1d1d1d;
      }

      .cls-35 {
        fill: #0e0e0e;
      }

      .cls-36 {
        fill: #191919;
      }

      .cls-37 {
        fill: #484848;
      }

      .cls-38 {
        fill: #f4f4f4;
      }

      .cls-39 {
        fill: #696969;
      }

      .cls-40 {
        fill: #6b6b6b;
      }

      .cls-41 {
        fill: #f5f5f5;
      }

      .cls-42 {
        fill: #353535;
      }

      .cls-43 {
        fill: #393939;
      }

      .cls-44 {
        fill: #ababab;
      }

      .cls-45 {
        fill: #fefefe;
      }

      .cls-46 {
        fill: #040404;
      }

      .cls-47 {
        fill: #fafafa;
      }

      .cls-48 {
        fill: #242424;
      }

      .cls-49 {
        fill: #7a7a7a;
      }

      .cls-50 {
        fill: #bebebe;
      }

      .cls-51 {
        fill: #fdfdfd;
      }

      .cls-52 {
        fill: #323232;
      }

      .cls-53 {
        fill: #414141;
      }

      .cls-54 {
        fill: #161616;
      }

      .cls-55 {
        fill: #2e2e2e;
      }
    </style>
  </defs>
  <g id="Layer_1-2" data-name="Layer_1">
    <g>
      <path d="M90.67.01c48.6.48,89.08,40.74,88.23,91.02-.8,47.88-39.87,87.86-89.51,87.85C39.49,178.86-.68,137.95,0,88.13.69,39,41.29-.74,90.67.01Z"/>
      <path class="cls-45" d="M1.93,89.34C1.94,40.98,41.58,1.5,90.2,1.88c47.22.37,87.01,38.79,86.81,87.94-.2,48.89-40.31,87.77-88.69,87.15C40.57,176.36,1.87,137.26,1.93,89.34Z"/>
      <path d="M43.87,69.12q.99,1.07,1.63-.21c.05-.11.09-.22.15-.33,1.05-2.12,1.04-2.12-.46-3.88-1.5-1.76-2.09-3.72-1.23-5.98.64-1.68,1-3.43,1.4-5.2,2.79,2.36,3.67,6.4,2.27,10.27-.12.34-.38.69-.34,1,.06.47.31.04.48,0,.23-.05.35,0,.25.26-.14.28-.28.57-.5,1.01,1.02-.39,1.93-.73,2.82-1.08,1.6-.64,3.1-.46,4.56.47.93.6,1.85,1.24,2.96,1.52-.14.57-.6.58-.94.67-3.11.86-6.16.83-9.04-.82-.52-.3-.77-.23-.98.3-.44,1.11-.88,2.22-1.37,3.31-.26.57-.05.81.46.68.76-.2,1.6-.19,2.01-1.19.34-.83,1.19-1.04,2.04-.59.52.27.73.75.45,1.32-.44.85-1.16,1.06-2.02.74-1.34-.5-3.49.41-3.92,1.73-.62,1.89-1.18,3.79-1.57,5.76.31,0,.39-.18.48-.37,1.17-2.36,3.25-3.32,5.7-3.6,1.08-.13,2.16-.08,2.82-1.43-.02,3.53-3.08,6.38-6.75,6.55-2.79.13-2.74.13-2.81,2.98-.03,1.13.33,1.86,1.22,2.61,15.02,12.68,30.01,25.4,44.97,38.16.94.81,1.43.82,2.39-.01,11.81-10.22,23.68-20.38,35.54-30.55.55-.47.88-.95.94-1.7.52-6.11-.69-11.93-3.17-17.47-4.8-10.74-12.83-18-23.98-21.78-.15-.05-.3-.09-.45-.14,0,.79-.02,1.54,0,2.29.11,2.96-.82,5.57-2.6,7.9-.35.45-.48.73-.11,1.29.61.91.25,1.96-.79,2.35-.57.21-.73.5-.75,1.03-.03.88-.05,1.76-.17,2.63-.09.68.19.77.77.75,1.68-.05,3.36-.02,5.04-.06.57-.02,1.02.07,1.21.68.68,2.28,2.09,2.85,4.46,2.56,3.67-.45,7.4-.43,11.25-.62-1.31,4.74-3.5,8.64-8.04,10.84-2.02.98-4.12,1.7-6.23,2.43-.73.25-1.74.39-1.92,1.24-.2.93.8,1.31,1.44,1.7.57.35.76,1.31,1.68,1.1.34.6-.16.98-.38,1.44-.41.23-.89.31-1.27.62-.22.18-.51.29-.66-.12.18-1.3-.42-2.17-1.44-2.93-2.1-1.56-1.96-2.55.45-3.56,2.21-.93,4.5-1.67,6.71-2.59,3.79-1.57,6.09-4.53,7.79-8.09.32-.68.07-.83-.6-.79-2.75.14-5.49.46-8.24.63-.92.06-1.84.07-2.75.14-1.2.09-2.08-.37-2.44-1.49-.56-1.71-1.75-2.01-3.36-1.89-3.34.24-3.35.19-3.54,3.49-.34,5.7-.71,11.39-1.18,17.08-.05.65-.25,1.38.46,1.86.47.4,1.32-.08,1.62.71-1.01.7-2.14.34-3.21.28-.85-.05-1.67,0-2.44.33-.92.38-.94.69-.14,1.32.06.12.05.24-.02.35-.68.28-.92.79-.88,1.51.04.63.02,1.27,0,1.9,0,.13,0,.26,0,.39,0,.13,0,.26,0,.4.04,1.42-.05,2.85.08,4.27.02.14.02.27.01.41-.11,1.43-.16,2.85.02,4.28.02.14.03.29.02.43-.18,1.99-.07,3.98-.11,5.97-.01.8-.09,1.59-.3,2.36-.06.22-.11.52-.4.52-.35,0-.38-.34-.44-.6-.09-.39-.04-.79-.05-1.19-.06-2.35.08-4.7-.11-7.04-.01-.14,0-.28,0-.43.21-1.26.11-2.54.08-3.8-.01-.32-.27-.61-.16-.95.38-1.42.11-2.88.2-4.31,0-.19,0-.38,0-.57-.17-1.21.47-2.55-.6-3.62-.05-.05-.03-.16.01-.22.92-1.26-.31-1.25-.93-1.51-.62-.26-1.31-.21-1.99-.17-.97.07-1.97.33-2.9-.23.18-.84,1-.42,1.44-.75.54-.14.76-.46.73-1.05-.23-3.94-.46-7.88-.74-11.82-.19-2.62-.28-5.25-.5-7.88-.08-.91-.43-1.29-1.33-1.23-.6.04-1.19.05-1.79.09-1.08.07-1.92.34-2.15,1.61-.12.68-.71.93-1.37.93-2.03-.02-4.06.07-6.1-.12-2.7-.26-5.43-.06-8.14-.09-.94,0-.81.52-.54,1.11,1.88,4.17,4.68,7.4,9.15,8.92,1.78.61,3.6,1.04,5.47,1.28.6.07,1.19.16,1.75.38,1.41.55,1.66,1.72.59,2.81-.53.54-1.21.92-1.77,1.43-1.23,1.13-1.37,3.18-.3,4.44.6.71,1.93.76,3.35.13.21-.06.37.02.48.2.23.54-.05,1.01-.22,1.49-1.2,3.3-2.44,6.59-3.64,9.89-.48,1.32-.47,1.33.88,1.68.44.28,1.19-.1,1.4.66-.32.02-.64.05-.96.07-1.1.06-2.47.04-3.09-.61-.74-.77.38-1.85.74-2.75,1.15-2.87,2.42-5.71,3.71-8.71-.68,0-1.19-.07-1.69.01-1.18.19-1.83-.39-2.4-1.33-1.49-2.48-.97-5.03,1.39-6.68.46-.32,1.4-.52,1.21-1.11-.18-.55-1.11-.41-1.72-.45-7.14-.52-12.46-3.83-15.77-10.25-.46-.89-.69-1.85-.94-2.82-.27-1.08.17-1.17,1.05-1.14,5.11.19,10.22.31,15.33.52.9.04,1.34-.16,1.34-1.09,0-.23.11-.47.13-.71.05-.87.43-1.18,1.35-1.15,1.39.06,2.79-.09,4.19-.12.5-.01.7-.11.62-.68-.12-.79-.12-1.59-.15-2.39-.03-.75,0-1.39-.98-1.74-.86-.3-.98-1.22-.64-2.05.15-.37.28-.61-.07-.93-1.83-1.67-2.26-3.92-2.35-6.21-.09-2.28-.21-4.52-.83-6.74-.52-1.88-.05-3.7,1.04-5.57.36,1.18.86,2.11,2,2.89-.44-2.54.48-4.64,1.1-6.8.84-2.9-.04-5.34-2.16-7.42,3.19-.77,6.44,1.89,8.07,6.66.29-1.74.98-3.1,2.18-4.19,1.21-1.1,2.55-1.87,4.39-2.16-1.33,3.09.44,5.76.73,8.71,1.57-1.47,3.22-1.8,5.06-.52-.08.14-.11.25-.17.32-.38.39-1.1.97-.76,1.3.56.55,1.52.57,2.35.7.06,0,.17-.23.23-.37.08-.18.12-.38.2-.56.37-.9.24-2.31,1.07-2.62.7-.26,1.78.45,2.68.77,2,.7,3.9,1.61,5.79,2.55.64.31.82.58.4,1.21-.46.7-.81,1.47-1.24,2.18-.26.42-.24.65.24.91,2.43,1.31,4.71,2.85,6.84,4.61.48.4.7.29,1.03-.14.53-.7,1.14-1.34,1.67-2.04.31-.4.54-.44.95-.09,2.31,1.99,4.43,4.15,6.4,6.47.39.46.2.64-.16.92-.67.51-1.29,1.08-1.97,1.56-.52.36-.67.6-.2,1.18,1.62,1.98,3.03,4.11,4.21,6.39.34.65.65.69,1.16.3.03-.02.07-.03.11-.05.88-.44,1.93-1.4,2.61-1.2.92.28,1.08,1.73,1.53,2.69.89,1.92,1.62,3.9,2.27,5.91.21.66.16.98-.55,1.07-.04,0-.07.03-.11.04-.98.32-2.36.37-2.82,1.05-.38.55.35,1.85.58,2.81.45,1.83.7,3.69.94,5.58.52.09.74-.38,1.04-.64,8.8-7.53,17.59-15.08,26.39-22.63.06-.05.12-.11.18-.16.39-.31.83-.92,1.31-.44.47.46-.2.84-.47,1.17-10.83,13.24-21.67,26.47-32.5,39.7-13.95,17.04-27.9,34.07-41.82,51.13-.63.78-.89.74-1.5-.01-18.49-22.71-37.01-45.41-55.52-68.11-6.14-7.52-12.27-15.05-18.41-22.58-.26-.32-.8-.68-.4-1.1.46-.48.86.05,1.21.35,8.47,7.19,16.94,14.37,25.41,21.56.12.1.23.19.45.37.21-1.35.4-2.58.59-3.82.06-.4-.06-.65-.51-.78-3.48-.98-4.57-3.98-4.26-7.36.07-.73.03-1.52.49-2.25,3.09,2.35,4.77,5.34,4.43,9.36.49-.19.44-.57.5-.87.38-1.71.74-3.44,1.46-5.04.55-1.22.71-2.33-.26-3.4-.12-.23.02-.26.2-.26Z"/>
      <path d="M144.74,147.39c0,3.74-3.01,6.72-6.78,6.72-3.64,0-6.69-2.99-6.7-6.55,0-3.64,3.22-6.9,6.86-6.92,3.61-.02,6.63,3.06,6.62,6.76Z"/>
      <path d="M130.34,157.91c.06,2.24-.88,3.79-2.45,4.89-1.46,1.02-3.08,1.83-4.61,2.74-.43.26-.63.06-.83-.3-1.88-3.37-3.76-6.74-5.64-10.11-.15-.28-.41-.56.03-.79,1.95-.98,3.68-2.42,5.86-2.91,4.01-.89,7.65,2.32,7.64,6.47Z"/>
      <path d="M157.36,133.5c-.64.96-1.21,1.8-1.77,2.65-.23.35-.55.23-.86.2-1.15-.12-2.31-.16-3.45-.36-.74-.13-1.06.28-1.29.78-.29.62.4.68.69.91.59.47,1.21.93,1.88,1.27.81.41.67.79.23,1.42-1.24,1.77-1.21,1.79-3,.59-2.68-1.8-5.34-3.64-8.06-5.38-.78-.5-.77-.85-.26-1.53.84-1.12,1.56-2.32,2.37-3.45.97-1.35,2.2-2.24,3.96-1.84,1.87.42,3.16,1.52,3.51,3.47.11.61.34.76.89.81,1.66.12,3.32.29,5.17.46Z"/>
      <path class="cls-45" d="M89.51,105.57c-.51-1.49-.15-3.01-.18-4.51.21-.26.47-.27.76-.18.18.09.29.47.58.14.63-.29,1.31-.49,1.94-.23.54.22.88-.24,1.34-.19.11,0,.22.03.33.06.85.1,1.69.15,2.53-.05.27-.1.54-.21.81-.3.46-.14.9-.32,1.34-.52.64-.21.85.22,1.04.69.86,2.18,1.65,4.39,2.45,6.6.38,1.06.17,1.43-.92,1.56-.96.12-1.97.32-2.92-.16h-.09c-.58.1-1.11-.19-1.68-.24-1.42-.34-2.84-.4-4.25.09-1.18.33-2.01,1.3-3.12,1.75-.35-1.43-.34-2.85.02-4.27.64-.34,1.36.25,1.99-.19.34-.02.69-.01,1.03-.01.17,0,.35.01.52.06.16.07.29.17.38.32.07.14.19.23.28.36,0-.14-.17-.19-.18-.33-.12-.13.4-.26,0-.39-.32,0-.63-.05-.95-.03-.37,0-.74,0-1.11,0-.65.16-1.29,0-1.93-.02Z"/>
      <path d="M71.62,165.79c.08,1.71.16,3.42.25,5.14.03.52-.1.79-.67.52-.14-.07-.31-.08-.46-.12-1.93-.53-1.96-.53-1.97-2.54,0-.62-.15-.99-.81-1.07-.23-.03-.46-.14-.69-.2-2.16-.61-2.19-.63-3.5,1.22-.36.51-.67.36-1.1.25-2.44-.64-2.44-.63-1.03-2.64,1.94-2.78,3.91-5.54,5.81-8.35.46-.68.87-.81,1.64-.57,2.08.65,2.11.61,2.25,2.76.12,1.87.2,3.74.29,5.62Z"/>
      <path d="M105.6,171.55c.2-4.36.39-8.66.58-12.96.02-.41.14-.59.56-.75,2.55-.96,2.55-.98,4.08,1.22,2.08,2.98,4.15,5.95,6.22,8.93.02.03.02.08.06.23-.86.25-1.74.46-2.59.76-.66.24-.74-.3-.96-.61-1.11-1.61-1.1-1.62-2.95-1.07-.34.1-.68.27-1.03.31-.7.1-.86.48-.85,1.15.01,1.92-.02,1.92-1.92,2.47-.38.11-.76.2-1.21.32Z"/>
      <path d="M32.09,138.43c-.64.49-1.24,1.02-1.9,1.44-.54.35-.61-.32-.85-.56-.36-.37-.71-.78-.94-1.23-.54-1.05-1.08-1.07-1.94-.3-.55.49-.73.79-.19,1.38.54.59.98,1.26,1.46,1.9,1.08,1.43,1.05,1.39-.34,2.52-.63.51-.94.44-1.39-.19-1.28-1.78-2.61-3.53-3.95-5.27-.36-.47-.41-.71.13-1.11,3.04-2.26,6.06-4.56,9.07-6.86.45-.35.69-.33,1.03.14,1.32,1.8,2.68,3.57,4.04,5.35.27.35.39.55-.06.93-1.68,1.39-1.66,1.42-2.97-.32-.29-.38-.58-.76-.87-1.14-.86-1.14-1.36-1.13-2.32-.05-.34.38-.07.56.1.8.51.71,1.04,1.41,1.56,2.12.09.13.18.25.33.46Z"/>
      <path d="M95.38,168.79c.62-2.82,1.25-5.57,1.81-8.32.15-.76.62-.8,1.19-.85,2.49-.21,2.48-.22,1.84,2.19-.85,3.19-1.73,6.38-2.51,9.58-.23.95-.58,1.37-1.62,1.4-2.06.04-2.06.11-2.91-1.78-1.43-3.19-2.84-6.39-4.32-9.57-.4-.85-.18-1.04.67-1.1,2.35-.19,2.35-.22,3.22,1.92.88,2.16,1.74,4.32,2.63,6.53Z"/>
      <path d="M55.58,152.05c2.12.11,3.79,1.26,5.01,3.15.33.51.25.86-.29,1.13-.14.07-.27.17-.39.27-.86.8-1.62,1.18-2.26-.28-.27-.62-.91-.99-1.58-1.21-.41-.13-.8-.09-1.1.24-.35.38-.17.77.07,1.08.58.76,1.21,1.48,1.79,2.24,1.28,1.68,1.4,3.3.38,4.74-1.05,1.48-2.89,2.01-4.81,1.32-1.72-.62-3.01-1.76-3.83-3.41-.23-.47-.37-.89.32-1.09.11-.03.2-.12.31-.18q1.48-.8,2.46.52c.39.52.84.97,1.42,1.25.45.22.91.31,1.33-.09.49-.46.19-.89-.09-1.27-.67-.94-1.45-1.81-2.07-2.78-1-1.58-.86-3.15.27-4.42.76-.86,1.75-1.21,3.06-1.24Z"/>
      <path d="M43.03,29.59c1.26,1.77,2.47,3.58,3.8,5.29.64.82.03,1.04-.44,1.31-.45.26-.85,1.09-1.51.11-1.79-2.64-3.64-5.24-5.5-7.84-.37-.51-.27-.73.19-1.14,1.17-1.06,2.25-1.24,3.67-.35,1.56.97,3.28,1.68,5.08,2.37-1.07-1.51-2.09-3.05-3.22-4.51-.55-.71-.47-1.02.23-1.57.87-.69,1.24-.49,1.8.34,1.67,2.48,3.41,4.92,5.18,7.34.44.61.34.83-.22,1.29-.97.8-1.78.97-2.95.27-1.73-1.05-3.61-1.86-5.42-2.78-.21-.1-.39-.31-.68-.12Z"/>
      <path d="M52.56,58.56c-.6.72-1.3,1.37-1.55,2.38.94.15,1.66-.36,2.44-.6,3.67-1.12,7.09-.93,10.03,1.85.43.41.8.87,1.11,1.56-4.26.37-8.43.99-12.25-1.62-1.5-1.02-1.57-.94-2.66.51-.23.03-.34-.03-.27-.28.05-.11.08-.23.15-.32,1.23-1.63,2-3.14.21-5.04-1-1.07-.72-2.73-.52-4.15.21-1.52.48-3.05,1.17-4.49,2.43,3.53,3.31,6.31,1.2,10.13.3.24.49-.16.76-.13.21-.06.26.01.18.21Z"/>
      <path d="M75.84,22.73c-.7.42-1.49.41-2.19.68-.29.11-.46,0-.6-.22-.15-.24-.27-.49-.44-.71-.35-.47-.47-1.35-1.05-1.35-.85,0-1.75.25-2.54.61-.59.27-.26,1.02-.26,1.55,0,.95-.14,1.58-1.33,1.81-1.04.2-1.29.1-1.23-.96.17-3.19.29-6.38.35-9.57.01-.68.31-.87.85-1.03,2.32-.67,2.32-.68,3.58,1.36,1.61,2.61,3.22,5.22,4.85,7.86Z"/>
      <path d="M148.72,53.94c-.58.15-1.17.27-1.74.45-.45.14-.7.05-.97-.38-1.13-1.77-1.14-1.75.9-2.19,2.85-.61,5.69-1.23,8.52-1.9.72-.17,1.12-.04,1.49.65,1.08,2.01,1.11,1.99-.55,3.7-1.97,2.04-3.95,4.07-5.87,6.15-.47.51-.69.55-.97-.1-.12-.29-.28-.58-.47-.83-.46-.61-.45-1.14.21-1.6.1-.07.18-.16.25-.25.33-.43,1.14-.74.99-1.23-.25-.86-.82-1.62-1.28-2.42-.14-.24-.35-.09-.54-.07Z"/>
      <path d="M31.78,34.58c.27.13.48.24.7.35,2.97,1.45,5.94,2.91,8.92,4.34.53.25.77.39.25.97-1.28,1.44-1.27,1.52-2.97.58-.83-.46-1.3-.33-1.88.37-1.2,1.43-1.24,1.4-.25,3,.45.72-.28,2.42-1.12,2.6-.35.08-.39-.22-.49-.4-1.74-3-3.46-6.01-5.2-9.01-.19-.33-.23-.54.06-.82.57-.56,1.09-1.17,1.64-1.74.1-.11.25-.16.35-.23Z"/>
      <path d="M80.08,159.78c1.86.13,1.88.14,1.73,1.95-.2,2.42-.41,4.85-.68,7.27-.09.85.16,1.12,1,1.13,1.07.01,2.15.23,3.22.23.79,0,.97.29.84,1-.07.35-.07.72-.07,1.07,0,.62-.23.79-.88.72-2.26-.25-4.53-.44-6.8-.59-.66-.04-.79-.29-.74-.88.34-3.81.65-7.63.99-11.45.11-1.21,1-.18,1.37-.45Z"/>
      <path d="M42.08,141.71c-.22.25-.39.46-.58.66-1.88,2-3.76,4.02-5.66,6-.51.53-.61.85.04,1.38.93.75,1.73,1.65,2.63,2.44.44.38.43.59.03,1.02-1.42,1.54-1.39,1.55-2.89.11-1.38-1.32-2.76-2.65-4.19-3.92-.46-.41-.36-.64,0-1.01,2.6-2.75,5.19-5.52,7.76-8.29.39-.42.67-.57,1.13-.06.53.59,1.14,1.1,1.75,1.68Z"/>
      <path d="M108.92,13.43c.68.22,1.39.45,2.11.68.99.31,1.96.7,2.97.89,1.03.2.95.67.74,1.5-.25.99-.73.79-1.38.55-.6-.22-1.21-.41-1.82-.56-.38-.1-.87-.52-1.15-.12-.33.47-.47,1.09-.59,1.67-.07.34.37.34.6.42.83.28,1.66.57,2.51.77,1.05.25.36.87.27,1.29-.08.41-.06,1.13-.94.75-.76-.32-1.59-.49-2.38-.76-.53-.18-.82-.17-1.04.5-.53,1.68-.58,1.67,1.13,2.21.49.16.98.38,1.49.45,1.04.14,1.13.64.81,1.53-.23.62-.41.91-1.15.65-1.65-.58-3.33-1.07-5.01-1.58-.55-.17-.87-.29-.61-1.04.99-2.98,1.87-6,2.83-8.99.09-.28,0-.79.61-.77Z"/>
      <path d="M24.14,52.36c-2.02.02-3.45-1.62-3.18-3.5.22-1.52,1.03-2.72,2.11-3.8.73-.72,1.04-.17,1.49.3.46.48.79.84-.02,1.33-.58.35-.95.97-1.21,1.61-.17.41-.21.87.16,1.23.38.36.82.3,1.22.07.62-.37,1.2-.79,1.8-1.17,1.53-.97,2.86-.96,4.1,0,1.17.92,1.49,2.36.92,4.01-.44,1.29-1.29,2.27-2.28,3.17-.94.85-1.17-.25-1.67-.6-.67-.48-.18-.72.21-1.03.59-.48,1.14-1,1.5-1.69.29-.56.46-1.13-.08-1.65-.54-.52-1.1-.32-1.63.02-.77.5-1.46,1.11-2.32,1.46-.42.16-.83.27-1.12.26Z"/>
      <path class="cls-5" d="M127.05,23.48c-.29-.26-.54-.52-.83-.72-1.18-.86-2.45-1.41-3.89-.68-1.44.74-2.09,2.06-2.21,3.6-.12,1.48,1.02,2.78,2.92,3.32.74.21,1.06.34.78,1.21-.28.88-.63,1.12-1.52.8-2.35-.86-4.37-2.02-4.77-4.79-.35-2.44,1.26-5.32,3.47-6.29,2.19-.95,5.47-.18,7.04,1.6.32.37.29.57-.03.87-.34.33-.65.7-.98,1.07Z"/>
      <path d="M99.06,22.81c-4.44-.04-6.83-3.1-5.77-7.28,1.02-4.03,5.21-5.02,8.56-3.59,1.02.43.07,1.07.02,1.6-.07.67-.49.5-.94.34-3.18-1.13-5.43.5-5.21,3.77.14,2.03,1.61,3.12,4.21,3.03.61-.02.91-.01.95.74.07,1.38.09,1.42-1.82,1.4Z"/>
      <path class="cls-5" d="M55.21,20.38c-.63.29-1.27.53-1.86.85-.9.49-.86-.32-1.07-.75-.22-.43-.74-.89.17-1.27,2.16-.92,4.31-1.87,6.41-2.91.81-.4.92.13,1.04.59.12.45.95.99-.12,1.42-.69.28-1.75.42-1.89,1.06-.13.59.51,1.36.82,2.05.8,1.78,1.59,3.56,2.42,5.32.24.51.16.71-.37.96-1.65.78-1.63.81-2.4-.89-.87-1.92-1.73-3.84-2.61-5.76-.12-.26-.13-.65-.54-.68Z"/>
      <path class="cls-5" d="M142.66,32.43c-.23.25-.41.45-.6.65-1.66,1.72-3.3,3.47-4.99,5.15-.52.51-.6.82,0,1.3.62.5,1.18,1.07,1.72,1.66.24.26.85.43.59.88-.3.5-.79.89-1.24,1.28-.17.14-.33-.12-.47-.25-1.38-1.32-2.75-2.66-4.15-3.96-.35-.33-.36-.51-.03-.85,2.31-2.37,4.61-4.74,6.89-7.13.37-.38.6-.39.95,0,.39.44.85.82,1.33,1.28Z"/>
      <path class="cls-5" d="M65.51,49.2c2.87-.56,5.68.45,8.55.28-.44,2.16-1.91,3.48-3.93,3.57-2.89.13-5.63-.33-7.97-2.2-.1-.26.04-.41.23-.55.28-.37.74-.42,1.13-.59.28-.14.54-.31.86-.36.15-.01.29,0,.44-.01.23-.03.45-.15.69-.13Z"/>
      <path d="M68.86,46.54c1.38-3.89,4.27-5.43,8.3-5.17,1.07.07,1.07.54.77,1.34-1.1,2.91-4.24,4.72-7.75,4.43-.36-.03-.71-.1-1.07-.15-.19-.09-.39-.18-.25-.45Z"/>
      <path class="cls-5" d="M64.54,49.44c-.29.16-.57.32-.86.48-.27-.02-.38-.16-.31-.43.55-.3.19-.67.07-1.02-1.06-3.07-.66-4.45,2.04-6.31,1.12-.77,1.59-1.82,1.79-3.13,1.91,2.17,1.12,6.38-1.75,9.75-.09.05-.17.11-.25.16-.27.12-.47.37-.74.49Z"/>
      <path class="cls-5" d="M56.23,55.89c1.63-.5,3.25-1.02,5.01-.99,2.37.04,4.23,1.17,6.17,2.44-5.17,2.26-8.23,1.83-11.71-.72-.07-.43-.05-.79.54-.73Z"/>
      <path class="cls-46" d="M89.48,110.07c.77-.91,1.69-1.59,2.88-1.85.25-.11.5-.21.5.23-.41,1.39-.28,2.83-.42,4.24-.21,2.1-.31,4.22-.48,6.33-.14,1.73-.83,2.42-2.55,2.6-1.94.2-3.16-.86-3.26-2.77-.16-3.11-.37-6.22-.5-9.33-.03-.8-.38-1.11-1.11-1.22-.96-.13-1.91-.05-2.87-.04-.29.09-.57.17-.58-.29,1.58-.99,4.35-.69,5.81.61.11.21.04.4-.05.58-.23,1.19-.14,2.39-.02,3.58.2,2.03.22,4.06.38,6.09.09,1.17.46,1.61,1.65,1.72,1.25.12,2-.37,2.16-1.53.17-1.19.19-2.39.25-3.58.1-1.91.42-3.81.25-5.75-.28.96-.44,1.94-.45,2.96-.01,1.6.04,3.2-.03,4.8-.02.48-.12.95-.24,1.42-.08.3-.14.7-.54.69-.48,0-.53-.45-.55-.79-.07-1.28-.13-2.56.07-3.83.19-1.2.11-2.39.11-3.59,0-.35,0-.73-.36-.96,0-.11-.02-.21-.03-.32Z"/>
      <path class="cls-5" d="M151.12,41.89c-.03.32-.28.41-.46.56-2.54,2-5.1,3.99-7.63,6-.46.37-.83.38-1.01-.16-.2-.6-1.57-.97-.63-1.76,2.54-2.12,5.21-4.1,7.8-6.16.38-.3.58-.25.84.12.34.49.73.95,1.08,1.4Z"/>
      <path class="cls-5" d="M133.76,25.17c.54.39,1.2.73,1.67,1.25.38.43-.24.75-.46,1.06-1.73,2.44-3.57,4.8-5.23,7.29-.77,1.15-1.19.27-1.75-.05-.6-.34-.98-.62-.37-1.42,1.86-2.44,3.62-4.96,5.43-7.45.18-.25.29-.58.72-.69Z"/>
      <path class="cls-5" d="M55.2,56.59c-.17.08-.38.27-.52.23-.31-.1-.11-.29.01-.43.36-.44.25-.88.03-1.34-1.38-2.78-.91-5.22,1.31-7.37.71-.68,1.28-1.49,2.29-2.14-.16,3.29.31,6.57-2.19,9.18-.04.46-.51.68-.59,1.12-.03.29.04.63-.35.76Z"/>
      <path class="cls-22" d="M102.92,92.4c.63-.12.84-1.09,1.66-.81.51.15.78.52.94,1.01-.15.97-.98,1.38-1.62,1.95-1.18,1.32-2.18,2.82-3.65,3.86-.53.44-.83,1.18-1.63,1.28-.34-.07-.61-.24-.83-.52-.18-.33-.33-.68-.51-1.01-.05-.16-.05-.32,0-.49.14-.3.32-.57.56-.81.48-.26.96-.52,1.25-1.01.13-.18.27-.35.44-.49.85-.57,1.48-1.38,2.23-2.07.27-.24.51-.5.74-.78.12-.11.23-.2.41-.12Z"/>
      <path class="cls-18" d="M98.62,99.58c.71-.16.9-1.05,1.64-1.17-.39.73-.17,1.37.15,2.08,1.03,2.28,1.95,4.62,3.01,6.89.42.9.15,1.15-.7,1.31-1.1.21-2.2.41-3.32.27-.33-.04-.77.07-.8-.48,1.11.08,2.2.12,3.3-.18.45-.12.57-.24.39-.71-.91-2.4-1.8-4.81-2.66-7.23-.18-.5-.35-.55-.73-.25-.22.12-.32,0-.39-.19,0-.12.03-.23.1-.33Z"/>
      <path class="cls-18" d="M43.87,69.12c-.07.09-.13.18-.2.26-.23-.18-.5-.14-.77-.19-.92-.15-1.43-.94-1.23-1.83.16-.7.64-1.03,1.31-.87.92.23,1.2.94,1.1,1.83-.03.27-.14.53-.22.79Z"/>
      <path class="cls-15" d="M105.34,92.63c-.25-.35-.5-.69-.76-1.04-.27-.62.5-.84.51-1.35.44-.07.68-1.11,1.17-.44.38.51,1.67.85.73,1.91-.53.25-.82.83-1.39,1.02-.11.01-.2-.02-.28-.1Z"/>
      <path class="cls-29" d="M60.97,53.17c.95,0,1.86.31,2.68-.51.31-.31.92-.03,1.24.41.23.33.23.68-.03.99-.31.38-.85.6-1.17.32-.79-.69-1.77-.87-2.72-1.22Z"/>
      <path class="cls-11" d="M60.96,49.03c0,.66-.31,1.1-.89,1.14-.63.05-.9-.43-.92-1.01-.02-.62.21-1.15.92-1.14.62,0,.85.49.89,1Z"/>
      <path class="cls-36" d="M92.86,108.45c-.17-.08-.34-.15-.5-.23,1.5-.75,3.03-.5,4.57-.19-.11.55-.47.26-.76.23-1.11-.04-2.22-.07-3.31.18Z"/>
      <path class="cls-33" d="M59.04,53.23c-.74.4-1.23,1.17-2.21,1.3.69-.66,1.42-1.28,2.07-1.98.62-.67.69.36,1.09.29-.1.65-.69.13-.95.39Z"/>
      <path class="cls-30" d="M60.97,50.89c-.18.69-.62,1.07-1.56,1.3.51-.64.4-1.21.62-1.73.3,0,.11.89.67.43.09-.09.18-.09.27,0Z"/>
      <path class="cls-43" d="M78.7,108.92c-.41-.39-1.05.04-1.44-.4.83-.66,1.84-.32,2.76-.47.29.06.53.18.67.45-.63.27-1.3.41-1.98.42Z"/>
      <path class="cls-34" d="M105.34,92.63c.07-.04.14-.04.21-.01.27-.09.34.04.28.28-.59.61-.94,1.5-1.93,1.65.36-.73,1.29-1.03,1.43-1.92Z"/>
      <path class="cls-14" d="M60.97,50.89c-.09,0-.18,0-.27,0,.45-.52.97-.85,1.69-.72.11.1.11.2.01.31-.08.12-.16.25-.24.37-.4.02-.8.03-1.2.05Z"/>
      <path class="cls-17" d="M96.17,108.26c.24-.11.57.06.76-.23.55.09,1.1.16,1.59.44-.83.51-1.57-.06-2.35-.21Z"/>
      <path class="cls-13" d="M55.23,55.84c-.04-.65.48-.85.91-1.12.85.24.57.55.05.87-.26.29-.56.46-.96.25Z"/>
      <path class="cls-21" d="M68.86,46.54c.08.15.17.3.25.45-.51.26-1.02.52-1.84.94.54-.82,1.14-1.02,1.59-1.39Z"/>
      <path class="cls-30" d="M49.41,62.35c.09.09.18.19.27.28-.21.42-.37.89-1.08,1.11.19-.67.47-1.05.81-1.39Z"/>
      <path class="cls-23" d="M62.41,50.47c0-.1,0-.21-.01-.31.06-.61.58-.55.98-.66.1.14.2.29.31.43-.41.23-.94.16-1.27.55Z"/>
      <path class="cls-55" d="M48.01,65.06c-.08-.09-.17-.17-.25-.26.22-.39.33-.88.96-1.04,0,.61-.41.93-.71,1.3Z"/>
      <path class="cls-31" d="M55.23,55.84c.32-.08.64-.17.96-.25.01.1.03.2.04.3-.31.14-.38.47-.54.73-.16,0-.32-.02-.48-.02.19-.24.08-.5.03-.75Z"/>
      <path class="cls-28" d="M105.84,92.9c-.09-.09-.19-.19-.28-.28.55-.19.7-1.03,1.45-.91-.31.48-.7.88-1.17,1.19Z"/>
      <path class="cls-48" d="M80.68,108.5c-.19-.05-.41-.03-.53-.24.26-.35.54-.57.96-.22.18.08.36.15.54.23-.29.22-.64.22-.97.23Z"/>
      <path class="cls-19" d="M52.56,58.56c-.06-.07-.12-.14-.18-.21.21-.4.58-.6,1.14-.82-.18.61-.54.84-.96,1.03Z"/>
      <path class="cls-4" d="M59.04,53.23c.32-.13.63-.26.95-.39.2-.01.43-.01.49.19.05.17-.12.24-.29.23-.38-.01-.76-.02-1.14-.03Z"/>
      <path class="cls-50" d="M65.35,48.76c.06,0,.12,0,.18.03,0,.14-.01.27-.02.41-.03.36-.37.16-.52.29-.31.18-.32-.04-.24-.22.11-.25.37-.37.6-.51Z"/>
      <path class="cls-45" d="M151.44,73.72c-1.6,1.67-3.18,3.36-4.81,5.01-9.51,9.66-19.03,19.3-28.54,28.96-9.31,9.46-18.62,18.92-27.9,28.41-.72.73-1.05.84-1.87,0-7.52-7.75-15.1-15.43-22.67-23.13-13.05-13.29-26.1-26.58-39.15-39.88-.37-.38-.71-.79-1.13-1.26.67-.09.9.37,1.21.63,17.71,15.01,35.41,30.03,53.11,45.05,2.99,2.53,6.01,5.02,8.94,7.62.91.81,1.47.7,2.32-.03,12.02-10.36,24.06-20.68,36.09-31.02,7.91-6.79,15.82-13.59,23.73-20.38.12-.1.26-.18.39-.26.23-.04.35.03.27.29Z"/>
      <path class="cls-45" d="M94.75,44.39c.56-.82,1-1.75,1.89-2.29.87-.52,1.8-.77,2.93-.39-1.79,2.22-1.61,4.66-1.08,7.13.68,3.15,1.03,6.31.13,9.48-.13.46-.28.92-.48,1.35-.93,2.07-2.05,3.52-4.82,3.25-3.28-.33-6.63-.1-9.94-.06-.7,0-1.2-.21-1.67-.71-1.41-1.51-2.02-3.34-2.02-5.35,0-2.23.09-4.43-.65-6.62-.41-1.22-.29-2.58.02-4.17.64,1.84,2.49,2.06,3.41,3.39-1.09-3.02-.19-5.86.53-8.74.58-2.32.55-4.63-.74-6.79,4.01,2.01,5.49,5.58,5.98,9.88.37-4.03,1.33-7.64,5.59-9.49-.6,3.24,1.14,6.2.69,9.36-.19.35,0,.73-.08,1.09-.01.08-.03.15-.06.23-.03.09-.02.08.04-.03.05-.22.15-.4.34-.51Z"/>
      <path class="cls-45" d="M79.94,95.05c-.62,1.14-3.16,1.25-3.8.11-1.03-1.85-1.47-3.92.9-5.42.44-.28.83-.62,1.23-.95.44-.38.78-.84.59-1.46-.17-.57-.68-.79-1.19-.89-1.37-.27-2.75-.48-4.12-.73-6.23-1.16-10.28-4.9-12.67-10.65-.42-1-.01-1.04.78-1.02,4.87.13,9.73.22,14.6.38.81.03,1.19-.23,1.22-1,.05-1.25.65-1.69,1.9-1.57,1.02.1,2.07-.02,3.1-.1.62-.05.79.14.83.78.42,6.97.87,13.93,1.34,20.89.07,1.01-.65.78-1.16.93-.98.18-1.94.12-2.9-.08-.25.23-.31.63-.66.78Z"/>
      <path class="cls-45" d="M99.57,95.6c-.07.12-.14.25-.22.37-.73.24-1.18-.11-1.49-.73-.25-.71-.4-1.37-1.49-.84-.47.23-1.22.12-1.83-.05-.86.03-.78-.54-.74-1.12.28-4.06.55-8.12.83-12.18.2-2.86.46-5.73.59-8.59.04-.87.37-1.09,1.12-1.07.6.01,1.21.03,1.79-.07,2.19-.36,3.98-.06,4.68,2.45.21.75.78.97,1.59.91,4.21-.33,8.43-.61,12.66-.91.18.47-.15.82-.32,1.19-2.07,4.48-5.26,7.72-10.05,9.27-1.78.58-3.53,1.24-5.26,1.95-1.67.69-1.74,1.43-.31,2.52.32.24.64.47.96.72,1.24.99,1.37,1.45.84,2.99-.07.05-.13.1-.2.15-.3.31-.67.54-.94.88-.73.73-1.45,1.48-2.21,2.17Z"/>
      <path class="cls-45" d="M81.12,108.04c-.32.07-.64.15-.96.22-.95.24-1.92.27-2.9.26q-1.79-.3-1.17-1.98c1.37-3.74,2.73-7.48,4.1-11.22.1-.39.1-.82.45-1.1.57-.07.97.31,1.43.54,1.04.11,2.07-.03,3.1-.12,1.07-.1,2.05.18,2.98.69.41.23.66.55.59,1.06-.07.59-.64.1-.89.47.63.07.99.29.91,1.01-.09.87-.02,1.75-.03,2.63-.08.43-.43.29-.69.32.23.09.54-.04.68.27,0,1.25.01,2.5.01,3.75,0,.34.1.73-.41.81-.77.36-1.6.06-2.39.21-.15-.04.04.04-.11,0-.15-.03-.27-.12-.41-.17.05.1.18.05.26.13.05.05.14.05.21.06.96,0,1.94-.26,2.85.24-.13,1.3.21,2.63-.18,3.92-.78-.16-1.23-.76-1.72-1.3-1.8-1.15-3.74-1.2-5.75-.7Z"/>
      <path class="cls-45" d="M94.91,68.43c-.49,7.06-.98,13.98-1.46,20.9-.09,1.27-.26,2.55-.27,3.82,0,.79-.26.97-1.03.99-1,.02-.73-.63-.71-1.11.14-4.15.3-8.3.45-12.44.11-2.95.2-5.91.3-8.86q.08-2.49,2.73-3.3Z"/>
      <path class="cls-9" d="M89.42,94.76v-25.87c.6-.18.99.19,1.44.26.72.12.89.55.86,1.26-.27,6.7-.5,13.4-.74,20.1-.03.84-.12,1.68-.04,2.51.12,1.2-.5,1.62-1.51,1.73Z"/>
      <path class="cls-51" d="M83.76,68.46c.18.03.25.04.33.06,1.72.43,2.22,1.49,2.23,3.28.06,7.15.33,14.29.49,21.44,0,.33.34.93-.5.9-.63-.02-1.03-.06-1.08-.85-.47-8.25-.97-16.5-1.47-24.83Z"/>
      <path class="cls-45" d="M88.79,94.87c-1.17-.13-1.45-.74-1.47-1.84-.14-7.53-.35-15.07-.55-22.6-.02-.72,1.08-1.67,1.82-1.57.45.06.31.4.31.64-.01,1.36-.06,2.71-.07,4.07-.02,6.79-.03,13.57-.04,20.36,0,.31,0,.63,0,.95Z"/>
      <path class="cls-51" d="M97.92,96.92c-.02.38-.19.64-.55.78-.38.44-.6.95-.75,1.5-.16.42-.25.87-.46,1.27-.07.11-.16.19-.27.24-.61.11-1.22.11-1.84.07l.03.02c-1-.16-2-.03-3,0-.62.02-1.25.1-1.81-.26,0-.83.07-1.66-.02-2.48-.11-1,.31-1.26,1.2-1.05.94-.23,1.88-.41,2.85-.16.22.02.43,0,.59-.03-.11-.02-.29.02-.46,0-.98-.21-1.98,0-2.96-.13-.36-.25-1,.41-1.18-.31-.19-.77.44-1.04.97-1.27.95-.42,1.95-.59,3-.45.98.13,1.96.21,2.95.07,1.1-.83,1.14-.82,1.79.56.11.55.78,1.12-.08,1.63Z"/>
      <path class="cls-9" d="M89.51,110.38c.5-.39.82-.55.77.37-.13,2.51-.19,5.03-.27,7.54-.01.42-.14.86.11,1.26.49.04.38-.32.39-.56.11-2.87.26-5.74.3-8.62.01-.93.37-1.39,1.27-1.58-.24,3.57-.49,7.11-.72,10.65-.04.7-.39,1.06-1,1.33-1.88.81-3.42-.09-3.53-2.06-.17-2.95-.39-5.9-.53-8.85-.01-.26-.48-.83.29-.89.73.09.82.63.87,1.22.09,1.27.19,2.54.13,3.81-.06,1.43.19,2.86.13,3.83-.23-1.94-.04-4.35-.21-6.76-.03-.4-.04-.86.33-1.09.39-.24.51.2.7.43.3,2.55.04,5.11.14,7.66.02.46-.16.95.25,1.43.38-.79.27-1.59.29-2.36.04-1.84.01-3.68.01-5.52,0-.43-.06-.88.28-1.24Z"/>
      <path class="cls-45" d="M89.26,63.32c2.03,0,4.06,0,6.1,0,.82,0,1.47.25,1.44,1.18-.03.85-.66,1.07-1.43,1.07-4.02-.01-8.05,0-12.07,0-.75,0-1.41-.19-1.44-1.06-.04-.93.61-1.19,1.43-1.19,1.99,0,3.98,0,5.98,0Z"/>
      <path class="cls-22" d="M89.31,66.12c1.64,0,3.27-.01,4.91,0,.31,0,.82-.2.82.37,0,.47.23,1.04-.44,1.34-1.45.65-2.86,1.46-4.48.5-1.09-.64-1.98.13-2.92.47-1.1.4-3.57-.89-3.67-1.88-.07-.64.1-.84.75-.82,1.68.04,3.35.01,5.03.01Z"/>
      <path class="cls-3" d="M88.54,110.41c-.19-.12-.39-.25-.64-.41v9.96c-.6-.58-.5-1.12-.51-1.6-.08-2.66-.14-5.33-.16-7.99,0-.6-.09-1.08-.64-1.4.09-.08.18-.15.27-.23.7.27,1.22.77,1.72,1.3-.01.12-.03.24-.04.37Z"/>
      <path class="cls-23" d="M90.47,96.7c1.05-.32,2.09-.26,3.14,0-.05.16-.14.3-.23.44-.97-.04-1.93-.33-2.89.27-.35.21-.08-.23-.03-.39,0-.1.01-.21.02-.31Z"/>
      <path class="cls-8" d="M89.27,100.55c1.22,0,2.43-.05,3.65,0,.38.01.88-.25,1.16.26-1.03.93-2.32-.37-3.36.39-.09-.05-.18-.1-.26-.15-.35-.27-.8-.03-1.17-.21l-.02-.29Z"/>
      <path class="cls-19" d="M97.86,95.36c-.22-1.08-.87-1.02-1.65-.63-.5-.34-1.19.09-1.66-.39,1.02.03,2.1.26,2.74-.92.48.48.58,1.08.8,1.61-.06.12-.07.28-.23.32Z"/>
      <path class="cls-53" d="M88.76,106.12c-.66-.21-1.34.05-2-.05-.35-.05-.79.2-1.01-.29l-.03.03c.86-.28,1.75-.11,2.62-.14.14.15.5.11.42.46Z"/>
      <path class="cls-2" d="M82.08,94.76c-.57.14-.93-.39-1.44-.44-.23.05-.35,0-.27-.27.06-.25.19-.69.45-.39.76.91,1.73.72,2.69.7-.39.44-1.02.03-1.43.4Z"/>
      <path class="cls-12" d="M91.44,105.8c-.65.68-1.29.09-1.94,0-.01-.07,0-.15.01-.22.61-.36,1.28-.2,1.93-.18.14.14.13.27,0,.41Z"/>
      <path class="cls-20" d="M151.44,73.72l-.27-.29c.6-.55,1.19-1.09,1.79-1.64-.22.9-.89,1.39-1.52,1.92Z"/>
      <path class="cls-27" d="M88.74,101.09c-.59-.05-1.19-.1-1.96-.16.7-.65,1.43-.02,1.97-.43,0,.2,0,.39,0,.59Z"/>
      <path class="cls-37" d="M80.38,94.05c.09.09.18.18.27.27-.15.33-.3.67-.45,1-.08-.09-.17-.18-.25-.27.07-.36.17-.72.43-1Z"/>
      <path class="cls-24" d="M94.29,44.86c.03-.42,0-.86.23-1.24.11.25-.02.57.24.77-.09.23-.18.46-.27.69-.2.05-.32.03-.2-.22Z"/>
      <path class="cls-44" d="M89.29,100.84c.5.02,1.06-.31,1.45.27-.17.05-.33.07-.46-.07-.32,0-.64.01-.96.02-.01-.07-.02-.15-.03-.22Z"/>
      <path class="cls-45" d="M137.84,143.79c2.01.03,3.83,1.97,3.77,4.04-.05,1.82-1.52,3.2-3.36,3.16-2.01-.05-3.86-1.93-3.82-3.88.03-1.81,1.61-3.34,3.41-3.32Z"/>
      <path class="cls-45" d="M123.6,154.27c1.67.01,3.25,1.69,3.55,3.76.2,1.43-1.04,3.12-2.58,3.62-.43.14-.48-.11-.6-.34-1.01-1.8-2.01-3.6-3.03-5.4-.17-.3-.32-.52.11-.75.81-.42,1.58-.94,2.55-.88Z"/>
      <path class="cls-22" d="M148.51,133.79c-.28.55-.46,1.33-1.22,1.59-.34.11-2.26-1.48-2.21-1.71.16-.77,1.43-1.81,2.08-1.69.8.14,1.46.96,1.35,1.81Z"/>
      <path class="cls-32" d="M94.05,100.78c.59-.39,1.29-.04,1.9-.28.4-.02.81-.07,1.07.35-1,.27-1.99.38-2.97-.07Z"/>
      <path class="cls-12" d="M97.66,106.01c-.81.11-1.61.1-2.47-.11.3-.43.57-.3.82-.23.52.24,1.21-.29,1.65.34Z"/>
      <path class="cls-12" d="M97.66,106.01c-.49-.42-1.16.05-1.65-.34.77,0,1.54,0,2.34,0-.04.52-.44.29-.69.34Z"/>
      <path class="cls-4" d="M97.03,100.86c-.34-.16-.84.16-1.07-.35,0-.07.02-.13.06-.19.07-.08.15-.12.26-.13.4.01.79-.17,1.2-.03.14.08.25.18.2.37-.22.09-.34.39-.64.33Z"/>
      <path class="cls-40" d="M93.26,106.09c-.05-.08-.11-.15-.16-.23-.09-.65.53-.22.71-.47.24,0,.65-.14.67.17.02.53-.7.04-.84.47-.11.15-.23.17-.38.06Z"/>
      <path class="cls-42" d="M97.66,100.52c-.1-.08-.19-.16-.29-.24.23-.61.68-.68,1.23-.49l.31.31c-.35.32-.81.34-1.24.42Z"/>
      <path class="cls-25" d="M91.44,105.8c0-.14,0-.27,0-.41.4,0,.79,0,1.19,0,.14.14.14.28,0,.42-.4,0-.79,0-1.19-.01Z"/>
      <path class="cls-7" d="M93.26,106.09c.13-.02.25-.04.38-.06.37.22.64.52.9,1.07-.68-.23-.93-.69-1.28-1.01Z"/>
      <path class="cls-10" d="M92.63,105.81c0-.14,0-.28,0-.42.4,0,.79,0,1.19,0-.16.27-.6.13-.71.47-.16-.02-.32-.03-.47-.05Z"/>
      <path class="cls-16" d="M90.29,101.04c.15.02.31.05.46.07,0,0-.03.09-.03.09-.26.2-.39.58-.85.55-.07-.37.33-.46.41-.71Z"/>
      <path class="cls-39" d="M98.95,105.84s-.07-.08-.07-.18c0-.19.16-.27.31-.28.15-.01.33.05.28.26-.04.18-.21.2-.53.2Z"/>
      <path class="cls-47" d="M68.68,162.02c0,.76-.05,1.52,0,2.28.07.81-.21,1-.94.7-.4-.16-.83-.27-1.32-.42.68-1.13,1.33-2.21,1.98-3.29.58.07.27.46.27.74Z"/>
      <path class="cls-6" d="M68.68,162.02c-.16-.22.1-.59-.27-.74,0-.21.1-.41.32-.41.23,0,.12.24.13.37,0,.27.04.56-.18.78Z"/>
      <path class="cls-38" d="M111.05,164.48q-2.31.77-2.31-1.49c0-.67,0-1.34,0-2.25.84,1.36,1.57,2.53,2.31,3.73Z"/>
      <path class="cls-47" d="M70.83,19.19c-.75.19-1.43.37-2.17.56v-4.28c.8,1.37,1.46,2.5,2.17,3.71Z"/>
      <path class="cls-38" d="M151.95,54.74q-.98-1.48,1.14-2.01c.53-.13,1.06-.3,1.72-.48-1.04.91-1.96,1.71-2.85,2.49Z"/>
      <path class="cls-41" d="M32.04,37.22c1.48.79,2.63,1.41,3.78,2.02q-1.34,1.86-2.45.05c-.37-.6-.76-1.19-1.33-2.07Z"/>
      <path class="cls-31" d="M65.35,48.76c.24.42-.55.33-.36.73-.16.13-.32.11-.45-.04.06-.48.3-.74.81-.69Z"/>
      <path class="cls-41" d="M98.6,99.79l-1.23.49c-.38-.15-.74.53-1.13.03-.02-.4.18-.75.3-1.12.19-.37.11-.98.8-.91.38.14.37.55.56.82.24.15.48.31.72.46.01.07,0,.14-.02.21Z"/>
      <path class="cls-54" d="M97.86,95.36c.08-.11.15-.21.23-.32.1.76.82.66,1.27.92-.35.5-.64,1.1-1.43.95.54-.54-.12-1.03-.07-1.55Z"/>
      <path class="cls-35" d="M99.57,95.6c.44-1.02,1.39-1.55,2.14-2.26.12-.1.23-.09.33.03-.77.8-1.4,1.76-2.47,2.23Z"/>
      <path class="cls-25" d="M97.43,98.37c-.63.03-.49.65-.74.97-.24.03-.36-.04-.26-.3.14-.57.07-1.3.95-1.35.02.15.04.3.07.45.07.05.09.11.06.15-.02.05-.05.07-.07.07Z"/>
      <path class="cls-26" d="M102.05,93.37c-.11-.01-.22-.02-.33-.03.24-.39.54-.69,1.01-.79.02.47-.38.6-.68.82Z"/>
      <path class="cls-49" d="M97.43,98.37c-.01-.08,0-.15.01-.23.47.17.58.51.47.97-.16-.25-.32-.49-.48-.74Z"/>
      <path class="cls-1" d="M94.29,44.86c.07.07.13.15.2.22-.1.22-.19.43-.32.72-.16-.42-.09-.69.12-.94Z"/>
      <path class="cls-52" d="M85.75,105.77c-.46.21-.88.16-1.47-.33.68,0,1.09.03,1.44.36,0,0,.03-.03.03-.03Z"/>
      <path class="cls-37" d="M96.42,99.04l.26.3c-.1.35-.15.71-.44.97h-.12s-.12,0-.12,0c.1-.44.13-.9.41-1.27Z"/>
      <path d="M93.38,97.13c.08-.15.16-.29.23-.44.3-.02.61-.05.91.13-.33.34-.84-.04-1.15.31Z"/>
    </g>
  </g>
</svg>