<?xml version="1.0" encoding="UTF-8"?>
<svg version="1.1" viewBox="0 0 444.2 130.5">
  <!-- Generator: Adobe Illustrator 28.7.1, SVG Export Plug-In . SVG Version: 1.2.0 Build 142)  -->
  <g>
    <g id="Layer_1">
      <g id="Layer_1-2" data-name="Layer_1">
        <g id="Layer_2">
          <g id="Layer_1-2">
            <g>
              <path d="M107.7,99.7v-41.1c0-.7.2-.9.9-.9h8.2c.9,0,1.1.3,1.1,1.1v69.8c0,.9-.2,1.1-1.1,1.1h-9.5c-.9,0-1.2-.3-1.4-1.1-4.3-16.1-8.7-32.2-13.1-48.4-.2-.6-.2-1.2-.7-1.7v50c0,.9-.2,1.1-1.1,1.1h-7.9c-1,0-1.3-.2-1.3-1.2V58.9c0-1.2.3-1.4,1.4-1.4h11.8c.8,0,1.2.2,1.4,1,3.6,13.4,7.2,26.8,10.8,40.2,0,.3.2.6.3.9h.2,0Z"/>
              <path d="M293,93.6v-19.1c0-3.1.5-6.1,1.7-8.9,1.7-3.9,4.5-6.6,8.5-7.8,3.9-1.2,7.8-1.3,11.7-.4,6.4,1.4,10.4,5.9,11.4,12.5.6,3.8.4,7.7.4,11.5s-.2.7-.7.7h-9.4c-.7,0-.7-.3-.7-.9v-6.8c0-.8,0-1.5-.2-2.3-.7-4.2-5.1-6.2-8.8-4.1-2.1,1.2-2.6,3.2-2.7,5.4v40.7c0,4.6,3.1,6.8,7.5,5.8,2.1-.5,3.4-1.9,3.8-4,.2-.9.3-1.9.3-2.9v-9.4c0-.5,0-.9.7-.9h9.4c.5,0,.7,0,.7.7-.1,4.7.3,9.3-.4,14-1.2,7.7-6.6,12.5-14.4,12.9-2.7,0-5.4,0-8-.6-6.1-1.7-9.3-5.9-10.5-11.9-.4-1.8-.5-3.6-.5-5.4v-18.9h.2Z"/>
              <path d="M226.8,93.7v18c0,1,0,2.1.2,3.1.4,3.8,3.1,5.9,6.9,5.2,3-.6,4.4-2.3,4.6-5.8v-10.3c0-3.4.2-1.1,1-1.1h8.9c3,0,.9,0,.9.6,0,4.7.3,9.3-.4,14-1.2,7.7-6.6,12.6-14.4,13-2.6,0-5.3,0-7.9-.6-6.2-1.7-9.4-5.9-10.6-12-.4-1.8-.5-3.6-.5-5.5v-37.8c0-2.7.3-5.3,1.2-7.8,1.8-5.3,5.5-8.5,11-9.5,3.2-.6,6.5-.7,9.8,0,6.4,1.5,10.3,5.8,11.4,12.5.6,3.8.4,7.7.4,11.5s-.2.7-.7.7h-9.5c-.7,0-.6-.4-.6-.9v-6.7c0-.8,0-1.7-.2-2.5-.6-3.2-2.6-4.8-5.9-4.7-3.2,0-5.1,1.9-5.4,5.1,0,1.1-.2,2.2-.2,3.3v18.1h0Z"/>
              <path d="M28.3,77.3h-4.1c-1,0-1.4-.2-1.3-1.3.1-1.7.1-3.3-.3-5-.7-2.5-2.5-3.9-5.4-3.8-2.8,0-4.7,1.4-5.2,4-.8,4-.1,7.7,2.2,11,2.2,3.2,5.1,5.8,7.9,8.3,4,3.6,7.8,7.4,9.8,12.5,2.6,6.4,2.6,13-.2,19.3-2,4.5-5.8,6.9-10.6,7.7-3,.5-6.1.6-9.1,0-6.6-1.4-10.5-5.7-11.7-12.3-.5-3-.4-6-.5-9.1,0-.6.1-.8.7-.8h9.4c.7,0,.7.4.7.9,0,2.2-.2,4.5.2,6.7.6,3.2,2.6,4.7,6.1,4.6,3,0,4.9-2,5.3-5.1.7-5.4-1.7-9.6-5.3-13.3-2.9-2.9-6-5.7-8.9-8.7-3.8-3.9-6.7-8.4-7.5-14-.6-4.3-.4-8.5,1.1-12.6,1.7-4.7,5.1-7.8,10-8.9,3.7-.8,7.5-.8,11.2,0,5.8,1.5,9,5.6,10.2,11.3.6,2.5.6,5,.6,7.5s-.2.9-.9.9h-4.6.2,0Z"/>
              <path d="M256.1,93.6v-34.8c0-.9.2-1.2,1.2-1.2h28.7c.9,0,1.1,0,1.1,1.1v8.4c0,.8-.2.9-.9.9h-17.5c-1,0-1.2.3-1.2,1.2v17.8c0,.8.2,1.1,1,1.1h13.4c.8,0,1.1.2,1.1,1v8.4c0,.7-.2.9-.9.9h-13.6c-.8,0-1.1.2-1.1,1.1v19.1c0,.8.2,1,1,1h17.5c.9,0,1.1.2,1.1,1.1v8.3c0,.6,0,1-.9,1h-29.1c-1,0-.9-.5-.9-1.2v-34.9h0v-.3h0Z"/>
              <path d="M134.5,98.9v-29.6c0-1-.2-1.2-1.2-1.2h-9.7c-.7,0-.9-.2-.9-.9v-8.5c0-.7.2-1,.9-1h33.2c.7,0,.9,0,.9.8v8.6c0,.8-.2.9-.9.9h-9.5c-1.1,0-1.4.2-1.4,1.4v59c0,1-.2,1.4-1.3,1.3h-8.9c-1,0-1.3-.2-1.2-1.2v-29.6h0Z"/>
              <path d="M353.1,93.7v-34.7c0-1.2.3-1.4,1.5-1.4h8.8c1,0,1.2.2,1.2,1.2v59.4c0,.8.2,1.1,1,1.1h16.5c.9,0,1.1.2,1,1.1v8.3c0,.7,0,1-1,1h-28.1c-.9,0-1-.4-1-1.1v-34.9s.1,0,.1,0Z"/>
              <path d="M333.6,93.6v-34.7c0-1.1.3-1.3,1.3-1.3h9c.8,0,1.1,0,1.1,1v70.1c0,.8-.2,1-1,1h-9.4c-.9,0-1-.2-1-1.1v-35Z"/>
              <path d="M395.7,14.3v30.8c0,1.2-.6,1.8-1.8,1.8h-4.1c-.5,0-.7-.2-.7-.7V1.8c0-1,.2-1.3,1.3-1.3,2.3.1,4.6,0,6.8,0s1.1.3,1.3,1c2.3,8.6,4.6,17.1,6.9,25.6,0,0,0,.1.2.5V1.5c0-.9.2-1.1,1.1-1.1h4.4c.8,0,1,.2,1,1v44.3c0,.9-.2,1.1-1.1,1.1h-5.3c-.8,0-1.2-.2-1.5-1.1-2.7-10.2-5.5-20.4-8.3-30.6,0-.3-.2-.7-.3-1h-.2l.3.2h0Z"/>
              <path d="M388,93.7v-34.8c0-1.1.3-1.3,1.3-1.3h9.1c.8,0,1,.2,1,1v70c0,.9-.3,1-1.1,1h-9.2c-.9,0-1.1-.2-1.1-1.1v-34.9h0Z"/>
              <path d="M114.2,23.7c0-4.6-.2-9.2,0-13.8.4-6.5,4.5-10,11-9.8,3.8,0,7.1,1.2,9.1,4.8,1,1.7,1.4,3.6,1.5,5.5v5.2c0,.6-.1.8-.7.8h-5.4c-.8,0-.8-.3-.8-.9v-4.9c-.1-2.5-1.6-3.8-4.1-3.6-1.6,0-2.7,1-3.1,2.5-.2.8-.2,1.6-.2,2.4v24.1c0,.6,0,1.1,0,1.7.4,2.3,1.7,3.3,3.9,3.2,2,0,3.3-1.3,3.4-3.5.1-3,0-5.9,0-8.9s-.3-.6-.7-.6c-.8,0-2,.4-2.4-.2s-.2-1.7-.2-2.5v-3.1c0-.6,0-.8.8-.8h8.6c.6,0,.8.2.8.8,0,5.1.1,10.2,0,15.2-.1,4.2-1.6,7.8-5.9,9.5-3.4,1.3-6.9,1.3-10.3-.2-3.5-1.6-5.1-4.7-5.4-8.3-.4-4.8,0-9.6,0-14.4h0v-.2h0Z"/>
              <path d="M2.1,23.7c0-4.6-.2-9.2,0-13.8C2.4,3.5,6.6,0,13,.1c3.8,0,7.2,1.2,9.2,4.8,1,1.7,1.4,3.7,1.5,5.6v4.9c0,.6,0,.9-.8.8h-5.4c-.6,0-.8-.2-.8-.8v-4.9c-.1-2.6-1.6-3.9-4.1-3.7-1.6,0-2.6.9-3,2.5-.2.8-.3,1.6-.3,2.5v24c0,.6,0,1.1.1,1.7.4,2.3,1.7,3.4,3.9,3.2,2.1,0,3.3-1.4,3.4-3.6v-6.6c0-.7.2-.9.9-.9h5.3c.3,0,.8-.2.8.4-.1,3.2.4,6.4-.4,9.6-1.2,5.3-4.9,7.9-10.6,7.8-6.8,0-10.7-4-10.7-11.1v-12.7h0,0Z"/>
              <path d="M205.3,33c1.1,0,2.6-.4,3.2,0,.7.6.2,2.1.2,3.2.1,3,1.4,4.5,4,4.5s3.2-1.1,3.5-3.1c.4-2.9-.5-5.4-2.4-7.6-2-2.5-4.6-4.4-6.8-6.7-3.4-3.5-5.2-7.7-5-12.6.2-3.7,1.3-7.1,4.7-9.1,3.4-2,10.8-2.2,14,1.6,2,2.3,2.6,5.1,2.8,8q0,2.2-2.1,2.2h-4.1c-.6,0-.8-.2-.8-.7,0-1,0-2-.2-3-.4-1.8-1.4-2.7-3.2-2.8-2,0-3.2.7-3.6,2.6-.5,2.2-.2,4.4,1,6.3,1.1,1.8,2.6,3.3,4.1,4.7,1.8,1.6,3.6,3.2,5.1,5,3.6,4.2,4.6,9.1,3.4,14.4-1.1,4.6-4.4,7.3-9.1,7.5-1.6,0-3.1,0-4.6-.3-4-1-6.6-3.9-7.3-8.2-.3-1.8-.2-3.5-.3-5.3,0-.6.1-.8.7-.8h2.8Z"/>
              <path d="M317.1,33c1.1,0,2.6-.4,3.2,0,.7.6.2,2.1.2,3.2.1,3,1.4,4.5,4,4.5s3.2-1.1,3.5-3.1c.4-2.9-.5-5.4-2.4-7.6-2-2.5-4.6-4.4-6.8-6.7-3.4-3.5-5.2-7.7-5-12.6.2-3.7,1.3-7.1,4.7-9.1,3.4-2,10.8-2.1,14,1.6,2,2.3,2.6,5.1,2.8,8,.1,2.2,0,2.2-2.1,2.2h-4.1c-.6,0-.8-.2-.8-.7,0-1,0-2-.2-3-.4-1.8-1.4-2.7-3.2-2.8-2,0-3.2.7-3.6,2.6-.5,2.2-.2,4.4,1,6.3,1,1.8,2.5,3.3,4.1,4.7,1.8,1.6,3.6,3.2,5.1,5,3.5,4.1,4.6,8.9,3.5,14.1-1,4.7-4.1,7.4-8.9,7.8-1.7.2-3.4,0-5-.3-4-1-6.6-3.9-7.3-8.2-.3-1.8-.2-3.5-.3-5.3,0-.6.1-.8.7-.8h2.9,0Z"/>
              <path d="M287,23.8V1.7c0-.9.2-1.2,1.2-1.2h17.8c.9,0,1.1.2,1,1v4.8c0,.8-.2.9-1,.9h-10.7c-.7,0-1,0-1,1v10.9c0,.8.2.9.9.9h8c.8,0,1.1.1,1.1,1v4.7c0,.9-.3,1-1.1,1h-7.9c-.9,0-1,.2-1,1.1v11.5c0,.8.2,1,1,1h10.7c.7,0,1,0,1,.9v5c0,.6-.1.8-.8.8h-18.4c-.9,0-.8-.5-.8-1v-22.2h0Z"/>
              <path d="M86.8,23.6V1.7c0-.8,0-1.2,1.1-1.1h17.9c.9,0,1.1.2,1,1.1v4.6c0,1-.3,1.2-1.2,1.1h-10.4c-.8,0-1,.2-1,1v10.9c0,.8.2.9.9.9h8.2c.7,0,1,.1.9.9v4.8c0,.8-.2,1-1,1h-7.9c-.8,0-1.2.1-1.2,1.1v11.4c0,1,.3,1.1,1.2,1.1h10.6c.7,0,1,.2.9.9v5c0,.6-.2.8-.8.8h-18.3c-.9,0-.8-.5-.8-1v-22.3h0v-.3h0Z"/>
              <path d="M261.3,23.7V1.6c0-.8.2-1.1,1-1h5.1c1,0,1.2.3,1.2,1.2v34.3c0,11.4,0,1.9,0,2.9s0,1.4,1.3,1.3h9.7c.9,0,1.1.2,1.1,1.1v4.9c0,.6,0,.8-.7.8h-17.9c-.9,0-.7-.5-.7-1v-22.3h-.1Z"/>
              <path d="M61.2,23.8V1.7c0-.9.2-1.2,1.1-1.1h5.2c.9,0,1.1.2,1.1,1.1v36.9c0,12.3.6,1.6,1.7,1.6h9.3c.8,0,1,.2,1,1v4.7c0,.8-.2,1.1-1,1.1h-17.3c-.8,0-1.1-.2-1-1v-22.2h0Z"/>
              <path d="M342.9,23.8V1.7c0-.9.2-1.2,1.1-1.1h5.4c.7,0,.9.2.9.9v44.6c0,.7-.2.9-.9.9h-5.5c-.8,0-1-.2-1-1v-22.2h0Z"/>
              <path d="M143.7,23.7V1.8c0-.9.1-1.2,1.1-1.1h5.4c.7,0,.9.2.9.9v44.6c0,.7-.2.9-.9.9h-5.5c-.8,0-1-.2-1-1v-22.3h0Z"/>
              <path d="M76.7,128.7c-.8-4.7-1.6-9.4-2.3-14.2-3-18.7-6-37.3-8.9-56,0-.6-.3-.8-1-.8h-7.4c-2.3,0-4.6,0-6.9,0-1.3,0-1.5.5-1.7,1.5-1.8,11.3-3.6,22.5-5.4,33.8-1.9,12-3.8,24-5.8,36,0,.6,0,.8.6.8h9c.6,0,.8-.2.9-.8.5-3.8,1.1-7.5,1.7-11.2,0-.6.2-1.1,1-1.1h12.1c.7,0,.9.2,1,.9.5,3.8,1.1,7.6,1.7,11.4,0,.8.4.9,1.1.9h9.6c.9,0,1-.3.8-1v-.2h0ZM60.9,106.8h-9c-.7,0-.9,0-.8-.9,1.7-11.1,3.3-22.2,5-33.4,0-.4.2-.8.3-1.3h0c1.7,11.5,3.4,23,5.2,34.5,0,.9,0,.9-.8.9v.2Z"/>
              <path d="M195.2,128.9c-.2-.7-.2-1.3-.3-2-1.5-9.3-3-18.6-4.5-27.9-1.4-8.7-2.8-17.4-4.2-26.1-.8-4.7-1.5-9.5-2.2-14.2,0-.5,0-1.1-1-1.1h-15c-.6,0-.8,0-.9.8-1.2,7.6-2.4,15.2-3.6,22.8-1.4,8.7-2.8,17.4-4.2,26.1-1.2,7.2-2.3,14.3-3.5,21.5-.1.7.1.9.8.9h8.5c.9,0,1.1-.3,1.2-1.1.5-3.7,1.1-7.3,1.6-11,.1-.9.5-1,1.2-1h11.3c1.2,0,1.6.4,1.7,1.5.5,3.6,1.1,7.2,1.6,10.8,0,.6.3.8,1,.8h9.8c.6,0,.9,0,.7-.8h0ZM179.2,106.8h-8.6c-.9,0-1.1-.2-1-1.1.9-5.6,1.7-11.1,2.5-16.7.9-5.7,1.7-11.4,2.6-17.2.3,0,.3,0,.4.2h0c1.1,7.3,2.2,14.6,3.3,21.9.6,3.9,1.2,7.8,1.8,11.7.1.8,0,1.1-1,1.1h0Z"/>
              <path d="M175.1,72.1c-.1,0-.3-.2-.4-.2,0-.2-.1-.7.1-.6.4,0,.3.5.3.9h0Z"/>
              <path d="M444.1,129.1c-1.4-8.5-2.7-17-4.1-25.5-1.7-10.3-3.3-20.6-5-30.9-.8-4.7-1.5-9.4-2.2-14.1,0-.6-.2-1-1-1h-15c-.6,0-.9.2-.9.8-.2,1.6-.5,3.2-.7,4.7-1.6,10.2-3.3,20.5-4.9,30.7-1.9,11.7-3.8,23.3-5.6,35,0,.5,0,.8.7.8h8.9c.7,0,.9-.2,1-.9.5-3.7,1.2-7.4,1.6-11.1,0-1,.5-1.1,1.4-1.1h11.3c1.2,0,1.5.4,1.6,1.4.5,3.6,1.1,7.3,1.6,10.9,0,.7.4.8,1,.8h10c.5,0,.7,0,.6-.7l-.3.2h0ZM428.1,106.8h-8.6c-1,0-1.1-.4-1-1.2.7-4.3,1.3-8.6,1.9-12.9,1-6.9,2.1-13.7,3.1-20.6,0-.2,0-.4.4-.5h0c1.6,10.5,3.1,20.9,4.7,31.3,0,1,.3,1.9.5,2.8.2.8,0,1.1-.9,1.1h-.1Z"/>
              <path d="M53.2,11c0-2.3-.5-4.5-1.7-6.5-3.4-5.7-13-5.3-16.6-2.3-2.9,2.4-3.8,5.5-3.8,9v25c0,8.4.3,3.6,1,5.3,1.6,4,5.3,6,10.3,5.9,4,0,7.5-1.3,9.5-5.1,1-1.9,1.4-3.9,1.4-6v-12.6h0v-12.7h-.1ZM45.8,37.2c0,2.5-1.6,3.7-4.1,3.5-1.6,0-2.6-1-3-2.5-.2-.8-.3-1.7-.3-2.5V11.7c0-.6,0-1.3.2-1.9.4-2.2,1.6-3.1,3.9-3,2,0,3.3,1.2,3.4,3.4.3,4.5,0,9,0,13.5h0v13.4h-.1Z"/>
              <path d="M181.4,11.1c0-2.3-.5-4.5-1.7-6.5-3.4-5.7-13-5.3-16.6-2.3-2.9,2.4-3.8,5.5-3.8,9v25c0,8.4.3,3.6,1,5.3,1.6,3.9,5.3,6,10.3,5.9,4.1,0,7.5-1.3,9.6-5.2,1-1.8,1.4-3.8,1.4-5.9v-12.6h0v-12.7s-.2,0-.2,0ZM174.1,35.5c0,1,0,2-.3,3-.5,1.5-1.6,2.2-3.4,2.2s-2.9-.7-3.4-2.2c-.3-.8-.4-1.7-.4-2.6v-12.1h0v-12c0-.6,0-1.3.2-1.9.4-2.2,1.7-3.2,4-3,2,0,3.1,1.3,3.3,3.4v25.3h0Z"/>
              <path d="M442.3,23.8v-12.7c0-2.1-.4-4.1-1.4-5.9-2-3.9-5.5-5.1-9.6-5.1s-8.6,2-10.3,6c-.7,1.7-1,3.5-1,5.4v26.6c.5,3.6,1.9,6.6,5.4,8.2,3.7,1.7,7.6,1.7,11.2,0,4-1.9,5.3-5.5,5.4-9.7v-12.7h.3ZM434.9,35.5c0,1,0,2-.4,3-.5,1.5-1.6,2.2-3.4,2.2s-2.9-.7-3.4-2.2c-.3-.8-.4-1.7-.4-2.6v-12.1h0v-12c0-.6,0-1.3.2-1.9.4-2.2,1.7-3.2,4-3,2,0,3.1,1.3,3.3,3.4v25.3h0Z"/>
              <path d="M382.2,45.9c-2.4-14.8-4.8-29.6-7.1-44.4,0-.8-.4-.9-1.1-.9h-4.4c-1.2,0-2.5.1-3.7,0-1.4-.1-2,.3-1.9,1.7,0,.5-.2,1-.2,1.5-2.3,14.1-4.5,28.2-6.8,42.3-.1.6,0,.8.7.8h5c.8,0,1-.3,1.1-1,.3-2.2.7-4.4,1-6.6,0-.7.3-.8,1-.8h7.2c.8,0,.9.3,1,1,.3,2.2.7,4.4,1,6.6,0,.7.3.8,1,.8h5.6c.9,0,.9-.3.8-1,0,0-.2,0-.2,0ZM371.8,32.3h-5.2c-.8,0-.9-.2-.8-1,1.1-7.2,2.2-14.4,3.2-21.7h.2c.6,4.3,1.3,8.5,1.9,12.8.5,3,.9,5.9,1.3,8.9,0,.7,0,1-.8,1h.2,0Z"/>
              <path d="M254.6,46.1c-.2-.8-.3-1.7-.4-2.5-2.2-14.1-4.5-28.1-6.7-42.2,0-.7-.4-.8-1-.8h-8.8c-.9,0-1.2.2-1.3,1.1-.7,4.7-1.5,9.5-2.2,14.2-1.6,10.1-3.2,20.2-4.9,30.3,0,.6,0,.8.6.8h5.2c.8,0,1-.2,1-.9.3-2.2.7-4.5,1-6.8,0-.6.3-.8.9-.8h7.2c.8,0,1,.4,1.1,1,.3,2.2.7,4.4,1,6.6,0,.6.3.8.9.8h5.9c.7,0,.8-.3.7-.8,0,0-.2,0-.2,0ZM244.1,32.3h-5.3c-1.8,0-.7,0-.6-.7,1.1-7.3,2.2-14.7,3.3-22h.2c.5,3.2,1,6.3,1.4,9.5.6,4.1,1.2,8.1,1.8,12.2,0,.8,0,1.1-.8,1h0Z"/>
            </g>
          </g>
        </g>
      </g>
    </g>
  </g>
</svg>